<svg width="183" height="47" viewBox="0 0 183 47" fill="none" xmlns="http://www.w3.org/2000/svg">
<path fill-rule="evenodd" clip-rule="evenodd" d="M72.0244 31.7605L71.7151 30.8782C71.5088 30.2901 71.2721 29.6125 71.0049 28.8456C70.7377 28.0786 70.501 27.4011 70.2948 26.8129L69.9854 25.9307H61.9135L59.8744 31.7605H57.2166L64.6979 11.3914H67.201L74.6823 31.7605H72.0244ZM65.9072 14.4828L65.5768 15.4215C65.3565 16.0473 65.0869 16.8213 64.7682 17.7435C64.4494 18.6658 64.1283 19.588 63.8049 20.5102C63.4815 21.4325 63.2096 22.2065 62.9893 22.8323L62.6588 23.771H69.2401L65.9916 14.4828H65.9072ZM84.3287 16.4025C86.2607 16.4025 87.8257 17.113 89.0257 18.534C90.2257 19.955 90.8257 21.8277 90.8257 24.1521C90.8257 26.4765 90.2307 28.3492 89.0397 29.7702C87.8497 31.1911 86.2977 31.9016 84.3857 31.9016C83.3077 31.9016 82.3507 31.6734 81.5167 31.217C80.6827 30.7606 80.0257 30.1183 79.5477 29.2902H79.4917V36.8421H77.0447V16.5437H79.3647V19.014H79.4217C79.8617 18.2235 80.5277 17.5906 81.4187 17.1154C82.3087 16.6402 83.2787 16.4025 84.3287 16.4025ZM83.8787 29.7137C85.2197 29.7137 86.2957 29.2079 87.1067 28.1962C87.9177 27.1846 88.3227 25.8366 88.3227 24.1521C88.3227 22.4676 87.9177 21.1196 87.1067 20.1079C86.2957 19.0963 85.2197 18.5905 83.8787 18.5905C82.5757 18.5905 81.5167 19.1033 80.7007 20.1291C79.8857 21.1548 79.4777 22.4958 79.4777 24.1521C79.4777 25.8083 79.8857 27.1493 80.7007 28.1751C81.5167 29.2008 82.5757 29.7137 83.8787 29.7137ZM101.036 16.4025C102.967 16.4025 104.533 17.113 105.733 18.534C106.933 19.955 107.533 21.8277 107.533 24.1521C107.533 26.4765 106.937 28.3492 105.747 29.7702C104.556 31.1911 103.005 31.9016 101.092 31.9016C100.014 31.9016 99.0577 31.6734 98.2227 31.217C97.3887 30.7606 96.7327 30.1183 96.2537 29.2902H96.1977V36.8421H93.7507V16.5437H96.0717V19.014H96.1277C96.5687 18.2235 97.2337 17.5906 98.1247 17.1154C99.0147 16.6402 99.9857 16.4025 101.036 16.4025ZM100.586 29.7137C101.926 29.7137 103.002 29.2079 103.813 28.1962C104.624 27.1846 105.029 25.8366 105.029 24.1521C105.029 22.4676 104.624 21.1196 103.813 20.1079C103.002 19.0963 101.926 18.5905 100.586 18.5905C99.2826 18.5905 98.2227 19.1033 97.4076 20.1291C96.5917 21.1548 96.1837 22.4958 96.1837 24.1521C96.1837 25.8083 96.5917 27.1493 97.4076 28.1751C98.2227 29.2008 99.2826 29.7137 100.586 29.7137ZM117.039 26.1565C117.161 27.9539 117.908 29.3937 119.282 30.4759C120.655 31.5582 122.415 32.0993 124.562 32.0993C126.897 32.0993 128.746 31.5558 130.11 30.4689C131.474 29.382 132.156 27.9069 132.156 26.0436C132.156 24.585 131.697 23.4181 130.778 22.5429C129.859 21.6677 128.35 20.9666 126.25 20.4396L124.126 19.875C122.748 19.5174 121.757 19.0916 121.152 18.5975C120.547 18.1035 120.245 17.4706 120.245 16.699C120.245 15.7015 120.66 14.8922 121.49 14.2711C122.319 13.65 123.39 13.3394 124.703 13.3394C126.025 13.3394 127.098 13.6547 127.923 14.2852C128.748 14.9157 129.217 15.7767 129.33 16.8684H131.861C131.805 15.1556 131.115 13.7582 129.794 12.676C128.472 11.5938 126.803 11.0527 124.787 11.0527C122.678 11.0527 120.955 11.5891 119.619 12.6619C118.283 13.7347 117.615 15.118 117.615 16.8119C117.615 19.4751 119.415 21.2678 123.015 22.19L125.617 22.8676C126.986 23.2157 127.982 23.6674 128.605 24.2227C129.229 24.7779 129.54 25.4884 129.54 26.3541C129.54 27.3517 129.093 28.1774 128.198 28.8315C127.302 29.4855 126.17 29.8125 124.801 29.8125C123.358 29.8125 122.158 29.4784 121.201 28.8103C120.245 28.1421 119.706 27.2576 119.584 26.1565H117.039ZM135.953 13.1136V16.5437H133.844V18.5764H135.953V27.8081C135.953 29.2667 136.246 30.3089 136.832 30.9347C137.418 31.5605 138.395 31.8734 139.764 31.8734C140.055 31.8734 140.352 31.8616 140.657 31.8381C140.962 31.8146 141.189 31.784 141.339 31.7464V29.6713C141.255 29.6808 141.095 29.6949 140.861 29.7137C140.626 29.7325 140.434 29.7419 140.284 29.7419C139.637 29.7419 139.162 29.5772 138.857 29.2479C138.552 28.9185 138.4 28.4056 138.4 27.7093V18.5764H141.353V16.5437H138.4V13.1136H135.953ZM150.662 31.9016C148.534 31.9016 146.837 31.1982 145.572 29.7913C144.306 28.3845 143.673 26.5047 143.673 24.1521C143.673 21.79 144.306 19.908 145.572 18.5058C146.837 17.1036 148.534 16.4025 150.662 16.4025C152.791 16.4025 154.487 17.1036 155.753 18.5058C157.019 19.908 157.651 21.79 157.651 24.1521C157.651 26.5047 157.019 28.3845 155.753 29.7913C154.487 31.1982 152.791 31.9016 150.662 31.9016ZM150.662 29.7137C152.078 29.7137 153.182 29.222 153.974 28.2386C154.766 27.2552 155.162 25.893 155.162 24.1521C155.162 22.4017 154.766 21.0372 153.974 20.0585C153.182 19.0798 152.078 18.5905 150.662 18.5905C149.247 18.5905 148.143 19.0822 147.351 20.0656C146.558 21.049 146.162 22.4111 146.162 24.1521C146.162 25.893 146.561 27.2552 147.358 28.2386C148.155 29.222 149.256 29.7137 150.662 29.7137ZM160.576 31.7605H163.023V22.3453C163.023 21.2725 163.321 20.4067 163.916 19.748C164.512 19.0892 165.301 18.7599 166.286 18.7599C166.586 18.7599 166.86 18.774 167.109 18.8022C167.357 18.8304 167.528 18.8634 167.622 18.901V16.4872C167.519 16.4684 167.378 16.4496 167.2 16.4308C167.022 16.4119 166.825 16.4025 166.609 16.4025C165.728 16.4025 164.952 16.6378 164.282 17.1083C163.612 17.5789 163.164 18.2141 162.939 19.014H162.883V16.5437H160.576V31.7605ZM176.101 18.5622C174.911 18.5622 173.924 18.9575 173.141 19.748C172.359 20.5385 171.925 21.5783 171.841 22.8676H180.18C180.151 21.5783 179.765 20.5385 179.019 19.748C178.274 18.9575 177.301 18.5622 176.101 18.5622ZM180.123 27.4128H182.542C182.336 28.7209 181.642 29.796 180.461 30.6383C179.28 31.4805 177.878 31.9016 176.256 31.9016C174.128 31.9016 172.438 31.2076 171.187 29.8196C169.935 28.4315 169.309 26.5612 169.309 24.2085C169.309 21.8465 169.933 19.955 171.18 18.534C172.426 17.113 174.081 16.4025 176.144 16.4025C178.169 16.4025 179.772 17.0707 180.953 18.407C182.134 19.7433 182.725 21.5642 182.725 23.8698V24.8296H171.841V24.9708C171.841 26.42 172.248 27.5775 173.064 28.4433C173.88 29.309 174.962 29.7419 176.312 29.7419C177.259 29.7419 178.077 29.5325 178.766 29.1138C179.455 28.695 179.908 28.128 180.123 27.4128Z" fill="white"/>
<path fill-rule="evenodd" clip-rule="evenodd" d="M28.027 0C25.7021 0.0975 22.885 1.5486 21.2177 3.4994C19.7189 5.2319 18.4106 7.9968 18.7633 10.6479C21.359 10.851 24.0039 9.3305 25.6197 7.3787C27.2322 5.4234 28.324 2.7098 28.027 0ZM27.3698 46.1384C30.5199 46.0797 32.5151 43.2806 34.4439 40.4642C36.5572 37.3795 37.4905 34.3886 37.6298 33.9423C37.6375 33.9174 37.6428 33.9005 37.6457 33.8918C37.6443 33.8912 37.6404 33.8896 37.6342 33.8871C37.3319 33.7643 31.5005 31.396 31.4426 24.5494C31.3856 18.895 35.8996 16.0826 36.3953 15.7738C36.4124 15.7631 36.4247 15.7554 36.4319 15.7507C33.7157 11.7821 29.4864 11.238 27.9794 11.1758C25.7782 10.9534 23.6427 11.7941 21.8978 12.4809C20.789 12.9174 19.838 13.2918 19.1281 13.2918C18.338 13.2918 17.3609 12.9043 16.2643 12.4695C14.8291 11.9004 13.1892 11.2502 11.4962 11.2813C7.5748 11.34 3.9561 13.5615 1.9366 17.0726C-2.1416 24.1426 0.890803 34.619 4.8637 40.3515C6.8084 43.1552 9.1208 46.3107 12.1619 46.1971C13.5197 46.1426 14.486 45.7315 15.4854 45.3064C16.6404 44.815 17.8396 44.3048 19.7382 44.3048C21.5464 44.3048 22.69 44.7992 23.79 45.2747C24.8421 45.7295 25.8542 46.1671 27.3698 46.1384Z" fill="white"/>
</svg>
