<svg width="188" height="45" viewBox="0 0 188 45" fill="none" xmlns="http://www.w3.org/2000/svg">
<path fill-rule="evenodd" clip-rule="evenodd" d="M154.959 22.95C154.959 23.9119 154.844 24.7909 154.616 25.5873C154.388 26.3836 154.053 27.0675 153.613 27.6391C153.173 28.2107 152.635 28.6562 152 28.9755C151.364 29.2948 150.64 29.4545 149.826 29.4545C148.862 29.4545 148.03 29.2909 147.328 28.9637C146.626 28.6365 146.047 28.1851 145.59 27.6096V34.1377H144.108V16.4219H145.49L145.565 18.2313C146.022 17.5927 146.599 17.092 147.297 16.7293C147.995 16.3667 148.825 16.1853 149.789 16.1853C150.611 16.1853 151.344 16.3391 151.987 16.6466C152.631 16.954 153.173 17.3916 153.613 17.9593C154.053 18.5269 154.388 19.2109 154.616 20.0111C154.844 20.8114 154.959 21.7082 154.959 22.7016V22.95ZM153.464 22.7016C153.464 21.9605 153.383 21.2667 153.221 20.6202C153.059 19.9737 152.814 19.4139 152.486 18.9409C152.158 18.4678 151.74 18.0953 151.234 17.8233C150.727 17.5513 150.133 17.4153 149.452 17.4153C148.912 17.4153 148.435 17.4823 148.019 17.6163C147.604 17.7504 147.241 17.9297 146.929 18.1544C146.618 18.3791 146.352 18.6393 146.132 18.935C145.912 19.2306 145.731 19.5401 145.59 19.8633V26.0012C145.748 26.3244 145.945 26.624 146.182 26.9C146.419 27.1759 146.697 27.4144 147.017 27.6155C147.336 27.8165 147.7 27.9742 148.107 28.0885C148.514 28.2028 148.97 28.26 149.477 28.26C150.158 28.26 150.748 28.124 151.246 27.852C151.744 27.58 152.158 27.2055 152.486 26.7285C152.814 26.2515 153.059 25.6898 153.221 25.0432C153.383 24.3967 153.464 23.699 153.464 22.95V22.7016ZM159.93 29.2179H158.435V11.0527H159.93V29.2179ZM172.488 29.2179C172.404 28.9972 172.34 28.7271 172.294 28.4078C172.249 28.0885 172.218 27.7633 172.201 27.4322C171.977 27.7081 171.711 27.9683 171.404 28.2127C171.096 28.4571 170.752 28.67 170.37 28.8513C169.988 29.0327 169.568 29.1785 169.111 29.2889C168.655 29.3993 168.16 29.4545 167.629 29.4545C166.973 29.4545 166.377 29.3638 165.841 29.1825C165.305 29.0011 164.849 28.7469 164.471 28.4197C164.093 28.0925 163.8 27.7081 163.592 27.2666C163.385 26.8251 163.281 26.3441 163.281 25.8238C163.281 25.2009 163.422 24.6392 163.704 24.1385C163.987 23.6379 164.394 23.2121 164.925 22.8613C165.457 22.5104 166.103 22.2424 166.863 22.0571C167.623 21.8718 168.476 21.7792 169.423 21.7792H172.189V20.3245C172.189 19.41 171.892 18.6905 171.298 18.1662C170.704 17.6419 169.838 17.3798 168.7 17.3798C168.177 17.3798 167.695 17.4468 167.255 17.5808C166.815 17.7149 166.435 17.9001 166.115 18.1367C165.795 18.3732 165.546 18.6472 165.368 18.9586C165.189 19.27 165.1 19.6031 165.1 19.9579L163.605 19.9461C163.605 19.4652 163.729 19 163.979 18.5506C164.228 18.1012 164.579 17.7011 165.031 17.3502C165.484 16.9994 166.028 16.7175 166.663 16.5046C167.299 16.2918 168.003 16.1853 168.775 16.1853C169.489 16.1853 170.147 16.2721 170.75 16.4455C171.352 16.619 171.869 16.8791 172.301 17.226C172.733 17.573 173.069 18.0066 173.31 18.5269C173.551 19.0473 173.671 19.6544 173.671 20.3482V26.5452C173.671 26.766 173.679 26.9946 173.696 27.2311C173.713 27.4676 173.74 27.6963 173.777 27.917C173.814 28.1378 173.858 28.3487 173.908 28.5498C173.958 28.7508 174.016 28.9262 174.082 29.076V29.2179H172.488ZM167.803 28.2009C168.343 28.2009 168.843 28.1358 169.304 28.0057C169.765 27.8757 170.183 27.6963 170.556 27.4676C170.93 27.239 171.254 26.9729 171.528 26.6694C171.802 26.3658 172.022 26.0367 172.189 25.6819V22.8672H169.635C168.87 22.8672 168.187 22.9322 167.585 23.0623C166.983 23.1924 166.474 23.3797 166.059 23.6241C165.644 23.8685 165.326 24.1661 165.106 24.517C164.886 24.8678 164.776 25.264 164.776 25.7055C164.776 26.0524 164.846 26.3776 164.988 26.6812C165.129 26.9847 165.33 27.2489 165.592 27.4736C165.853 27.6983 166.171 27.8757 166.545 28.0057C166.919 28.1358 167.338 28.2009 167.803 28.2009ZM181.918 27.1838L185.855 16.4219H187.462L181.756 31.2639C181.64 31.5556 181.493 31.8828 181.314 32.2455C181.136 32.6082 180.903 32.9472 180.617 33.2625C180.33 33.5779 179.973 33.844 179.545 34.0608C179.117 34.2776 178.596 34.386 177.982 34.386C177.899 34.386 177.803 34.3801 177.695 34.3683C177.587 34.3565 177.479 34.3427 177.371 34.3269C177.263 34.3111 177.161 34.2934 177.066 34.2737C176.97 34.254 176.894 34.2362 176.835 34.2205L176.823 33.0497C176.923 33.0654 177.058 33.0812 177.228 33.097C177.398 33.1127 177.521 33.1206 177.595 33.1206C177.994 33.1206 178.347 33.0714 178.654 32.9728C178.962 32.8742 179.23 32.7284 179.458 32.5352C179.686 32.3421 179.888 32.0996 180.062 31.8079C180.237 31.5162 180.394 31.1811 180.536 30.8027L181.183 29.1115L176.1 16.4219H177.732L181.918 27.1838Z" fill="white"/>
<path fill-rule="evenodd" clip-rule="evenodd" d="M0 3.0339V41.2562C0 42.5866 0.78 43.7369 1.9131 44.2857L24.3431 22.1385L1.9221 0C0.7842 0.5471 0 1.7001 0 3.0339ZM7.1597 42.8571L31.5028 29.2619L26.3585 24.2857L7.1597 42.8571ZM38.836 20.1397C39.6009 20.7658 40.0944 21.7523 40.0944 22.8619C40.0944 23.9549 39.6159 24.9282 38.8706 25.5554L33.9851 28.5714L28.6389 22.8553L33.9815 17.1428L38.836 20.1397ZM31.5028 15.0238L7.1597 1.4285L26.3585 20L31.5028 15.0238Z" fill="white"/>
<path fill-rule="evenodd" clip-rule="evenodd" d="M88.1414 30.2397C91.5064 30.2397 94.2484 27.655 94.2484 24.1474C94.2484 20.6151 91.5064 18.0552 88.1414 18.0552C84.7774 18.0552 82.0354 20.6151 82.0354 24.1474C82.0354 27.655 84.7774 30.2397 88.1414 30.2397ZM88.1414 20.4558C89.9864 20.4558 91.5754 21.9556 91.5754 24.1474C91.5754 26.3146 89.9864 27.8391 88.1414 27.8391C86.2974 27.8391 84.7084 26.3174 84.7084 24.1474C84.7084 21.9556 86.2974 20.4558 88.1414 20.4558Z" fill="white"/>
<path fill-rule="evenodd" clip-rule="evenodd" d="M101.711 30.2397C105.076 30.2397 107.818 27.655 107.818 24.1474C107.818 20.6151 105.076 18.0552 101.711 18.0552C98.3465 18.0552 95.6045 20.6179 95.6045 24.1474C95.6045 27.655 98.3465 30.2397 101.711 30.2397ZM101.711 20.4558C103.555 20.4558 105.145 21.9556 105.145 24.1474C105.145 26.3146 103.555 27.8391 101.711 27.8391C99.8675 27.8391 98.2785 26.3174 98.2785 24.1474C98.2785 21.9556 99.8675 20.4558 101.711 20.4558Z" fill="white"/>
<path fill-rule="evenodd" clip-rule="evenodd" d="M121.388 29.3336V18.4251H118.731V19.4143H118.634C118.005 18.6991 116.798 18.0552 115.279 18.0552C112.093 18.0552 109.175 20.7241 109.175 24.1547C109.175 27.5607 112.093 30.2077 115.279 30.2077C116.801 30.2077 118.008 29.5637 118.634 28.8266H118.731V29.7007C118.731 32.0271 117.43 33.2629 115.331 33.2629C113.619 33.2629 112.556 32.0956 112.122 31.1064L109.686 32.0737C110.387 33.6849 112.246 35.655 115.333 35.655C118.614 35.655 121.388 33.8219 121.388 29.3336ZM115.529 20.4501C117.433 20.4501 118.93 22.0147 118.93 24.1547C118.93 26.2728 117.433 27.8155 115.529 27.8155C113.599 27.8155 111.981 26.2728 111.981 24.1547C111.981 22.0147 113.599 20.4501 115.529 20.4501Z" fill="white"/>
<path d="M125.459 12.6406V28.8866H122.745V12.6406H125.459Z" fill="white"/>
<path fill-rule="evenodd" clip-rule="evenodd" d="M137.561 27.5397L135.555 26.1553C134.886 27.1716 133.973 27.8418 132.657 27.8418C131.344 27.8418 130.407 27.2183 129.804 25.996L137.673 22.623L137.405 21.9308C136.916 20.5712 135.422 18.0552 132.368 18.0552C129.335 18.0552 126.816 20.5245 126.816 24.1474C126.816 27.5644 129.313 30.2397 132.657 30.2397C135.353 30.2397 136.914 28.5312 137.561 27.5397ZM134.639 21.7029L129.38 23.9634C129.313 21.6122 131.142 20.4119 132.455 20.4119C133.48 20.4119 134.35 20.942 134.639 21.7029Z" fill="white"/>
<path d="M72.2186 21.7473V19.3429H80.5545C80.6355 19.762 80.6775 20.2577 80.6775 20.7942C80.6775 22.5982 80.1705 24.8288 78.5354 26.4181C76.945 28.0279 74.913 28.8864 72.2212 28.8864C67.2319 28.8864 63.0364 24.9361 63.0364 20.0865C63.0364 15.2368 67.2319 11.2866 72.2212 11.2866C74.9814 11.2866 76.9476 12.3393 78.425 13.7114L76.6795 15.408C75.6201 14.4422 74.1849 13.6909 72.2186 13.6909C68.5752 13.6909 65.7256 16.545 65.7256 20.0865C65.7256 23.6279 68.5752 26.482 72.2186 26.482C74.5818 26.482 75.9277 25.5596 76.7899 24.7215C77.4892 24.0418 77.9492 23.0709 78.1306 21.7448L72.2186 21.7473Z" fill="white"/>
</svg>
